<svg width="400" height="400" viewBox="0 0 400 400" xmlns="http://www.w3.org/2000/svg">
  <g opacity="0.25">
    <circle cx="43" cy="55" r="1" fill="white"/>
    <circle cx="102" cy="38" r="1.5" fill="white"/>
    <circle cx="156" cy="76" r="1" fill="white"/>
    <circle cx="201" cy="33" r="1.5" fill="white"/>
    <circle cx="244" cy="67" r="1" fill="white"/>
    <circle cx="287" cy="29" r="1.5" fill="white"/>
    <circle cx="345" cy="68" r="1" fill="white"/>
    <circle cx="32" cy="126" r="1.5" fill="white"/>
    <circle cx="75" cy="153" r="1" fill="white"/>
    <circle cx="134" cy="112" r="1.5" fill="white"/>
    <circle cx="187" cy="145" r="1" fill="white"/>
    <circle cx="231" cy="123" r="1.5" fill="white"/>
    <circle cx="296" cy="156" r="1" fill="white"/>
    <circle cx="342" cy="132" r="1.5" fill="white"/>
    <circle cx="55" cy="201" r="1" fill="white"/>
    <circle cx="98" cy="225" r="1.5" fill="white"/>
    <circle cx="154" cy="189" r="1" fill="white"/>
    <circle cx="201" cy="234" r="1.5" fill="white"/>
    <circle cx="267" cy="201" r="1" fill="white"/>
    <circle cx="312" cy="245" r="1.5" fill="white"/>
    <circle cx="365" cy="198" r="1" fill="white"/>
    <circle cx="24" cy="278" r="1.5" fill="white"/>
    <circle cx="89" cy="312" r="1" fill="white"/>
    <circle cx="134" cy="287" r="1.5" fill="white"/>
    <circle cx="178" cy="322" r="1" fill="white"/>
    <circle cx="245" cy="289" r="1.5" fill="white"/>
    <circle cx="290" cy="332" r="1" fill="white"/>
    <circle cx="347" cy="276" r="1.5" fill="white"/>
    <circle cx="65" cy="358" r="1" fill="white"/>
    <circle cx="123" cy="376" r="1.5" fill="white"/>
    <circle cx="189" cy="354" r="1" fill="white"/>
    <circle cx="232" cy="379" r="1.5" fill="white"/>
    <circle cx="287" cy="365" r="1" fill="white"/>
    <circle cx="342" cy="387" r="1.5" fill="white"/>
  </g>
</svg>